<svg width="107" height="82" viewBox="0 0 107 82" fill="none" xmlns="http://www.w3.org/2000/svg">
<g clip-path="url(#clip0)">
<path fill-rule="evenodd" clip-rule="evenodd" d="M0.0622061 75.8922L105.05 77.4865C102.86 40.85 80.8392 11.9706 53.5453 11.5561C26.2514 11.1416 3.36363 39.3391 0.0622061 75.8922Z" fill="#2B2D30"/>
<path fill-rule="evenodd" clip-rule="evenodd" d="M69.9707 22.7845C55.9484 16.2706 41.1045 17.808 29.1637 28.8916C17.9387 39.3109 11.3886 56.2086 9.85395 75.1542C12.2573 57.517 19.1813 41.69 30.2371 31.4277C42.0916 20.424 56.4292 17.9229 69.9707 22.7845Z" fill="white"/>
<path fill-rule="evenodd" clip-rule="evenodd" d="M69.5111 27.5025C55.7697 19.9486 41.5401 20.4275 30.4634 30.7092C20.0505 40.3746 14.3809 56.8868 13.6154 75.8174C15.2661 58.264 21.3359 42.8548 31.5918 33.3351C42.5885 23.1276 56.2946 21.6439 69.5111 27.5025Z" fill="white"/>
<path fill-rule="evenodd" clip-rule="evenodd" d="M67.2531 31.2504C54.5626 23.6831 41.581 23.6063 31.667 32.8088C22.3469 41.4599 17.4891 56.6858 17.1553 74.353C18.3239 58.0058 23.5681 43.8256 32.7477 35.305C42.5902 26.1689 55.0745 25.287 67.2531 31.2504Z" fill="white"/>
<path fill-rule="evenodd" clip-rule="evenodd" d="M66.5537 35.6025C54.0851 27.1831 41.5971 26.2432 32.3819 34.7971C23.719 42.8382 19.5762 57.758 19.8693 75.4228C20.425 59.1351 24.9758 45.2877 33.5081 37.3678C42.6568 28.8758 54.6331 28.8229 66.5537 35.6025Z" fill="white"/>
<path fill-rule="evenodd" clip-rule="evenodd" d="M66.4929 39.9743C53.9044 30.7507 41.763 29.1173 33.3794 37.2976C25.4983 44.9876 22.4192 59.9049 23.8028 77.8496C23.3261 61.3487 26.8669 47.5421 34.6292 39.9681C42.9522 31.8468 54.5368 32.4446 66.4929 39.9743Z" fill="white"/>
<path fill-rule="evenodd" clip-rule="evenodd" d="M64.371 41.0819C53.1708 33.1234 42.2999 31.8922 34.706 39.3019C27.5672 46.2675 24.666 59.5607 25.738 75.46C25.4657 60.8256 28.7703 48.5099 35.8015 41.6491C43.3406 34.293 53.7219 34.6152 64.371 41.0819Z" fill="white"/>
<path fill-rule="evenodd" clip-rule="evenodd" d="M68.0362 76.9244C68.0387 76.8225 68.0407 76.7205 68.0422 76.6183C68.2348 63.9401 61.3023 53.5548 52.5581 53.4221C43.8139 53.2893 36.5692 63.4593 36.3767 76.1374C36.3751 76.2396 36.3741 76.3417 36.3734 76.4436L68.0362 76.9244Z" fill="#A11311"/>
<path fill-rule="evenodd" clip-rule="evenodd" d="M57.482 76.7641C57.4829 76.7259 57.4836 76.6877 57.4841 76.6493C57.5563 71.895 55.2521 68.005 52.3373 67.9608C49.4225 67.9165 47.0012 71.7347 46.929 76.4891C46.9284 76.5274 46.928 76.5656 46.9277 76.6038L57.482 76.7641Z" fill="#2B2D30"/>
</g>
<defs>
<clipPath id="clip0">
<rect width="105" height="80" fill="white" transform="translate(104.988 81.5851) rotate(-179.13)"/>
</clipPath>
</defs>
</svg>
