<svg width="106" height="70" viewBox="0 0 106 70" fill="none" xmlns="http://www.w3.org/2000/svg">
<rect width="106" height="70" fill="white"/>
<path fill-rule="evenodd" clip-rule="evenodd" d="M0.0242362 68.2779L105.012 69.9492C102.823 31.5439 80.8013 1.2701 53.5073 0.835593C26.2135 0.401092 3.32566 29.96 0.0242362 68.2779Z" fill="#2B2D30"/>
<path fill-rule="evenodd" clip-rule="evenodd" d="M69.9327 12.6059C55.9104 5.77755 41.0666 7.38912 29.1258 19.0079C17.9008 29.9303 11.3506 47.6438 9.81599 67.5041C12.2194 49.0154 19.1433 32.4242 30.1991 21.6664C42.0537 10.1315 56.3913 7.50962 69.9327 12.6059Z" fill="white"/>
<path fill-rule="evenodd" clip-rule="evenodd" d="M69.4731 17.5521C55.7317 9.63358 41.5021 10.1355 30.4254 20.9137C20.0126 31.0457 14.3429 48.3551 13.5774 68.1997C15.2282 49.7988 21.2979 33.6456 31.5538 23.6663C42.5505 12.9661 56.2567 11.4106 69.4731 17.5521Z" fill="white"/>
<path fill-rule="evenodd" clip-rule="evenodd" d="M67.2152 21.4807C54.5246 13.548 41.5431 13.4675 31.629 23.1143C22.309 32.183 17.4511 48.144 17.1173 66.6642C18.286 49.5278 23.5302 34.6629 32.7097 25.731C42.5523 16.1538 55.0365 15.2293 67.2152 21.4807Z" fill="white"/>
<path fill-rule="evenodd" clip-rule="evenodd" d="M66.5157 26.0434C54.0471 17.2174 41.5591 16.2321 32.3439 25.199C23.681 33.6283 19.5383 49.2685 19.8314 67.7861C20.387 50.7121 24.9378 36.1962 33.4701 27.8939C42.6188 18.9919 54.5952 18.9364 66.5157 26.0434Z" fill="white"/>
<path fill-rule="evenodd" clip-rule="evenodd" d="M66.4549 30.6258C53.8664 20.9569 41.725 19.2446 33.3414 27.8199C25.4604 35.8811 22.3812 51.5186 23.7649 70.3297C23.2882 53.0322 26.8289 38.559 34.5912 30.6193C42.9142 22.1059 54.4989 22.7326 66.4549 30.6258Z" fill="white"/>
<path fill-rule="evenodd" clip-rule="evenodd" d="M64.333 31.7871C53.1328 23.4444 42.2619 22.1537 34.668 29.9212C27.5293 37.2232 24.6281 51.1581 25.7001 67.8251C25.4278 52.4841 28.7324 39.5737 35.7635 32.3817C43.3026 24.6704 53.6839 25.0083 64.333 31.7871Z" fill="white"/>
<path fill-rule="evenodd" clip-rule="evenodd" d="M67.9982 69.3598C68.0008 69.2531 68.0027 69.1461 68.0043 69.039C68.1968 55.7487 61.2643 44.862 52.5201 44.7228C43.7759 44.5836 36.5313 55.2446 36.3387 68.5349C36.3372 68.642 36.3361 68.749 36.3355 68.8558L67.9982 69.3598Z" fill="#A11311"/>
<path fill-rule="evenodd" clip-rule="evenodd" d="M57.444 69.1924C57.4449 69.1523 57.4456 69.1122 57.4462 69.0721C57.5184 64.0882 55.2141 60.0104 52.2993 59.964C49.3845 59.9176 46.9632 63.9202 46.891 68.904C46.8904 68.9442 46.89 68.9843 46.8897 69.0244L57.444 69.1924Z" fill="#2B2D30"/>
</svg>
